<svg width="48" height="48" viewBox="0 0 48 48" fill="none" xmlns="http://www.w3.org/2000/svg">
<path fill-rule="evenodd" clip-rule="evenodd" d="M43 41H5C2.791 41 1 39.209 1 37V11C1 8.791 2.791 7 5 7H43C45.209 7 47 8.791 47 11V37C47 39.209 45.209 41 43 41ZM45 11C45 9.896 44.104 9 43 9H5C3.896 9 3 9.896 3 11V37C3 38.104 3.896 39 5 39H43C44.104 39 45 38.104 45 37V11ZM41.334 34.715L35 28.381L31.381 32L34.715 35.334C35.096 35.715 35.096 36.333 34.715 36.715C34.333 37.096 33.715 37.096 33.334 36.715L19 22.381L6.666 34.715C6.285 35.096 5.667 35.096 5.285 34.715C4.904 34.333 4.904 33.715 5.285 33.334L18.19 20.429C18.222 20.381 18.243 20.328 18.285 20.285C18.482 20.088 18.742 19.998 19 20.004C19.258 19.998 19.518 20.088 19.715 20.285C19.757 20.328 19.777 20.381 19.81 20.429L30 30.619L34.19 26.429C34.223 26.382 34.243 26.328 34.285 26.285C34.482 26.089 34.742 25.998 35 26.004C35.258 25.998 35.518 26.089 35.715 26.285C35.757 26.328 35.777 26.382 35.81 26.429L42.715 33.334C43.096 33.715 43.096 34.333 42.715 34.715C42.333 35.096 41.715 35.096 41.334 34.715ZM29 19C26.791 19 25 17.209 25 15C25 12.791 26.791 11 29 11C31.209 11 33 12.791 33 15C33 17.209 31.209 19 29 19ZM29 13C27.896 13 27 13.896 27 15C27 16.104 27.896 17 29 17C30.104 17 31 16.104 31 15C31 13.896 30.104 13 29 13Z" fill="#9C9B9B"/>
</svg>
